<svg width="36" height="36" viewBox="0 0 36 36" fill="none" xmlns="http://www.w3.org/2000/svg">
<path d="M18 9.90002C18.4773 9.90002 18.9352 10.0897 19.2727 10.4272C19.6103 10.7648 19.8 11.2226 19.8 11.7V16.2H22.5C22.9773 16.2 23.4352 16.3897 23.7727 16.7272C24.1103 17.0648 24.3 17.5226 24.3 18C24.3 18.4774 24.1103 18.9353 23.7727 19.2728C23.4352 19.6104 22.9773 19.8 22.5 19.8H18C17.5226 19.8 17.0647 19.6104 16.7272 19.2728C16.3896 18.9353 16.2 18.4774 16.2 18V11.7C16.2 11.2226 16.3896 10.7648 16.7272 10.4272C17.0647 10.0897 17.5226 9.90002 18 9.90002Z" fill="url(#paint0_linear_44_85)"/>
<path d="M10.8558 9.90002C12.7078 8.26637 15.0639 7.31681 17.5312 7.20961C19.9984 7.1024 22.4279 7.84403 24.4147 9.31088C26.4015 10.7777 27.8256 12.8812 28.4496 15.2707C29.0735 17.6602 28.8597 20.1913 27.8438 22.4423C26.8279 24.6932 25.0712 26.528 22.8665 27.6409C20.6618 28.7537 18.1423 29.0773 15.728 28.5577C13.3136 28.0382 11.1503 26.7069 9.59845 24.7858C8.04663 22.8646 7.20011 20.4696 7.19998 18C7.19998 17.5226 7.01033 17.0648 6.67277 16.7272C6.3352 16.3897 5.87737 16.2 5.39998 16.2C4.92259 16.2 4.46475 16.3897 4.12718 16.7272C3.78962 17.0648 3.59998 17.5226 3.59998 18C3.60019 21.3146 4.74386 24.5276 6.83797 27.0969C8.93209 29.6661 11.8484 31.4343 15.0948 32.103C18.3413 32.7717 21.719 32.3 24.658 30.7674C27.597 29.2349 29.9173 26.7354 31.2274 23.6907C32.5375 20.6461 32.7572 17.2427 31.8493 14.0549C30.9414 10.867 28.9616 8.09002 26.244 6.19244C23.5263 4.29485 20.2373 3.39288 16.9318 3.63875C13.6264 3.88461 10.507 5.26326 8.09998 7.54202V5.40002C8.09998 4.92263 7.91033 4.46479 7.57277 4.12723C7.2352 3.78966 6.77737 3.60002 6.29998 3.60002C5.82259 3.60002 5.36475 3.78966 5.02718 4.12723C4.68962 4.46479 4.49998 4.92263 4.49998 5.40002V10.8C4.49998 11.5161 4.78444 12.2029 5.29079 12.7092C5.79714 13.2156 6.48389 13.5 7.19998 13.5H12.6C13.0774 13.5 13.5352 13.3104 13.8728 12.9728C14.2103 12.6352 14.4 12.1774 14.4 11.7C14.4 11.2226 14.2103 10.7648 13.8728 10.4272C13.5352 10.0897 13.0774 9.90002 12.6 9.90002H10.8558Z" fill="url(#paint1_linear_44_85)"/>
<defs>
<linearGradient id="paint0_linear_44_85" x1="14.6808" y1="29.61" x2="36.1692" y2="20.5452" gradientUnits="userSpaceOnUse">
<stop stop-color="#D373FC"/>
<stop offset="1" stop-color="#6D37CD"/>
</linearGradient>
<linearGradient id="paint1_linear_44_85" x1="3.59998" y1="5.29382" x2="11.331" y2="37.6614" gradientUnits="userSpaceOnUse">
<stop stop-color="#0FAFFF"/>
<stop offset="1" stop-color="#0067BF"/>
</linearGradient>
</defs>
</svg>
